# xmcd
#
# Track frame offsets: 
#        150
#        7275
#        17903
#        34219
#        45964
#        55419
#        59699
#        68954
#        78810
#
# Disc length: 1087 seconds
#
# Revision: 0
# Processed by: cddbd v1.5.2PL0 Copyright (c) Steve Scherf et al.
# Submitted via: ExactAudioCopy v0.99pb4
#
DISCID=77043d09
DTITLE=Black Moth Super Rainbow - Electric Avenue Chapter 8
DYEAR=2003
DGENRE=Acid
TTITLE0=Yourteethhandface(marchingalong)
TTITLE1=The Primary Color Movement
TTITLE2=Aloysius Version Offsite B
TTITLE3=Hazy Morning Organ (Live)
TTITLE4=Things From the See
TTITLE5=The Children's Television Workshop
TTITLE6=Sadness in Her Hair
TTITLE7=Snail Garden
TTITLE8=Understanding Love Through a Singing Forest
EXTD=
EXTT0=
EXTT1=
EXTT2=
EXTT3=
EXTT4=
EXTT5=
EXTT6=
EXTT7=
EXTT8=
PLAYORDER=
